<?xml version="1.0" standalone="no"?>
<!DOCTYPE svg PUBLIC "-//W3C//DTD SVG 20010904//EN"
 "http://www.w3.org/TR/2001/REC-SVG-20010904/DTD/svg10.dtd">
<svg version="1.0" xmlns="http://www.w3.org/2000/svg"
 width="120.000000pt" height="120.000000pt" viewBox="0 0 120.000000 120.000000"
 preserveAspectRatio="xMidYMid meet">
<metadata>
Created by potrace 1.14, written by Peter Selinger 2001-2017
</metadata>
<g transform="translate(0.000000,120.000000) scale(0.100000,-0.100000)"
fill="#000000" stroke="none">
<path d="M577 1173 c-13 -13 -7 -42 11 -52 22 -12 42 3 42 30 0 22 -38 38 -53
22z"/>
<path d="M417 1097 c-40 -62 -83 -87 -152 -87 -72 0 -85 -11 -85 -73 0 -67
-25 -109 -90 -149 -58 -36 -61 -49 -25 -116 32 -59 32 -96 0 -158 -14 -27 -25
-54 -25 -61 0 -6 22 -27 50 -47 60 -43 80 -79 82 -151 1 -31 7 -60 13 -64 5
-5 38 -11 73 -14 76 -6 102 -22 145 -87 17 -27 38 -50 45 -50 7 0 35 11 62 25
63 32 113 32 172 0 26 -14 54 -22 63 -19 9 4 25 24 35 45 30 57 82 89 150 89
74 1 86 12 93 88 6 72 23 97 95 139 24 14 42 32 42 43 0 10 -12 43 -26 74 -27
60 -27 80 1 52 29 -29 67 -12 58 25 -6 20 -47 27 -58 9 -9 -14 -25 -12 -25 3
0 6 11 35 25 62 13 28 24 57 24 65 0 8 -21 29 -47 45 -60 39 -83 79 -84 150
-1 30 -7 59 -12 64 -6 5 -39 11 -73 14 -74 6 -112 30 -149 93 -14 24 -33 44
-42 44 -10 0 -39 -11 -66 -25 -62 -31 -97 -31 -164 0 -30 14 -58 25 -63 25 -4
0 -24 -24 -42 -53z m351 -7 c18 -58 15 -93 -11 -131 -53 -81 -65 -145 -17 -91
47 51 67 35 35 -28 -14 -27 -14 -30 -1 -30 9 0 37 33 63 73 49 73 59 80 144
100 l26 7 -13 -48 c-19 -75 -24 -82 -68 -104 -93 -46 -143 -108 -59 -73 19 8
39 12 44 9 14 -8 -6 -38 -35 -54 -18 -9 -23 -17 -16 -24 6 -6 34 3 82 27 76
39 111 44 165 24 l31 -12 -22 -25 c-43 -49 -57 -55 -144 -60 -92 -5 -120 -23
-52 -34 59 -9 48 -37 -16 -40 -13 -1 -26 -5 -30 -9 -14 -13 40 -23 141 -26 34
-1 49 -9 88 -46 26 -24 47 -47 47 -51 0 -4 -3 -5 -6 -1 -3 3 -24 -1 -46 -9
-60 -21 -79 -18 -157 28 -50 29 -75 38 -82 31 -8 -8 -2 -18 20 -34 51 -38 36
-65 -19 -34 -31 18 -40 18 -40 3 0 -7 32 -35 71 -61 71 -49 82 -65 94 -130 l7
-36 -56 13 c-68 16 -78 24 -116 91 -49 86 -87 103 -56 25 15 -38 15 -40 -4
-40 -10 0 -27 13 -37 30 -9 17 -21 30 -25 30 -16 0 -7 -34 27 -97 19 -36 35
-74 35 -85 0 -27 -21 -98 -30 -98 -3 0 -24 18 -45 40 -39 40 -39 41 -38 112 2
76 -12 122 -28 97 -5 -8 -9 -26 -9 -41 0 -31 -18 -47 -31 -27 -5 8 -9 29 -9
47 0 36 -17 44 -24 9 -3 -12 -7 -55 -9 -96 -4 -70 -6 -75 -45 -114 l-40 -40
-16 38 c-24 56 -20 90 19 159 49 88 47 112 -5 61 -37 -36 -40 -37 -40 -17 0
13 7 36 15 52 14 27 14 30 0 30 -8 0 -35 -31 -59 -68 -42 -64 -65 -85 -111
-96 -11 -2 -30 -7 -42 -11 -21 -6 -21 -6 -6 52 17 67 21 72 88 108 60 33 86
55 80 66 -3 4 -23 2 -45 -6 -62 -22 -68 10 -8 41 21 11 27 19 20 26 -8 8 -34
0 -87 -26 -43 -20 -87 -36 -100 -36 -29 0 -85 20 -85 30 0 4 16 24 36 44 34
34 38 35 121 38 94 3 123 21 54 33 -40 7 -59 34 -26 36 8 1 24 3 35 4 11 1 26
3 33 4 8 1 7 6 -4 14 -9 7 -50 14 -90 15 -55 3 -82 9 -104 24 -39 27 -78 74
-62 76 7 1 36 7 65 14 48 11 57 10 85 -7 116 -69 175 -80 101 -19 -34 29 -36
34 -20 40 11 4 30 0 46 -10 34 -19 40 -20 40 -3 0 6 -32 34 -71 60 -38 27 -74
59 -79 72 -14 38 -23 98 -14 92 5 -3 25 -8 46 -11 62 -10 83 -25 116 -86 33
-60 58 -87 69 -76 4 3 -1 21 -10 40 -8 19 -13 37 -10 40 14 14 33 4 50 -24 9
-16 21 -30 25 -30 16 0 7 33 -27 99 -19 37 -35 75 -35 85 0 26 22 96 30 96 3
0 23 -18 44 -39 37 -38 38 -41 40 -118 2 -83 12 -116 27 -92 5 8 9 26 9 41 0
31 18 47 31 27 5 -8 9 -29 9 -46 0 -37 17 -44 24 -10 3 12 7 55 8 94 3 69 6
75 43 113 21 22 42 40 45 40 3 0 11 -18 18 -40z"/>
<path d="M307 1090 c-6 -22 18 -53 36 -47 22 7 31 35 18 51 -19 22 -48 20 -54
-4z"/>
<path d="M871 1097 c-14 -14 -14 -44 -1 -52 20 -12 50 6 50 30 0 25 -31 40
-49 22z"/>
<path d="M92 883 c2 -22 8 -28 28 -28 20 0 25 5 25 25 0 20 -6 26 -28 28 -26
3 -28 1 -25 -25z"/>
<path d="M1076 884 c-19 -19 -21 -44 -3 -45 23 -2 42 3 49 14 12 18 10 25 -11
37 -15 7 -23 6 -35 -6z"/>
<path d="M10 615 c-10 -12 -10 -18 0 -30 20 -25 55 -15 55 15 0 30 -35 40 -55
15z"/>
<path d="M88 349 c-37 -21 -4 -68 34 -48 22 12 23 45 2 53 -19 7 -15 8 -36 -5z"/>
<path d="M1053 324 c-4 -11 1 -22 13 -31 27 -20 49 -12 49 17 0 20 -6 26 -28
28 -18 2 -29 -2 -34 -14z"/>
<path d="M284 125 c-8 -32 11 -48 39 -34 25 14 19 53 -10 57 -17 3 -24 -3 -29
-23z"/>
<path d="M841 136 c-15 -18 2 -56 23 -56 26 0 37 25 20 48 -18 26 -27 27 -43
8z"/>
<path d="M570 65 c-19 -23 -8 -50 20 -50 16 0 26 6 28 18 4 18 -14 47 -28 47
-4 0 -13 -7 -20 -15z"/>
</g>
</svg>
